<?xml version="1.0" encoding="UTF-8"?>
<svg xmlns="http://www.w3.org/2000/svg" viewBox="0 0 76.37 76.36">
  <path fill="#ffffff" fill-rule="evenodd" d="M76.37,0C50.92.01,25.47.02.02,0-.02,11.81.01,23.63,0,35.44c9.85-8.34,19.68-16.72,29.53-25.06,8.9,7.55,17.8,15.11,26.7,22.66.92.84,1.98,1.54,2.8,2.48.07,13.61,0,27.22.03,40.83,5.77.02,11.54-.02,17.31,0,0-25.45.02-50.9,0-76.35h0Z"/>
  <path fill="rgba(255,255,255,0.6)" fill-rule="evenodd" d="M29.96,20.66c-.13-.16-.24-.34-.42-.45-1.68,2.15-3.31,4.34-4.98,6.5-.41.42-.25,1.03-.28,1.55-.02,6.59.03,13.18-.03,19.77-1.69,0-3.38,0-5.07,0-.03-3.01,0-6.01-.02-9.02.03-.26-.15-.46-.32-.62-1.66-1.65-3.31-3.3-4.95-4.95-1.75,1.76-3.51,3.52-5.28,5.27-.11,3.11.03,6.21-.05,9.32-1.09-.01-2.19,0-3.28-.01,0,1.32,0,2.64,0,3.95,1.09,0,2.18,0,3.28,0,0,3.54.05,7.09-.02,10.64-1.09.09-2.18,0-3.27.05.02,1.3.01,2.6,0,3.89,1.1.02,2.19.01,3.29,0,.02,3.27.03,6.53,0,9.8,3.54.02,7.07.02,10.61,0,0-3.27-.02-6.53,0-9.8,1.68,0,3.36,0,5.04,0,.12,3.27,0,6.54.04,9.81,3.52.02,7.04-.02,10.56,0,.02-3.27,0-6.54.01-9.81,1.7,0,3.4,0,5.1,0-.02,3.27,0,6.54,0,9.81,3.52,0,7.04,0,10.56,0,.03-3.27-.05-6.55.04-9.82,1.09.03,2.18.03,3.26,0,0-1.3,0-2.6,0-3.9-1.1,0-2.2.01-3.3-.02,0-3.55-.03-7.11.02-10.66,1.09.02,2.19,0,3.28.01,0-1.32.02-2.64-.02-3.95-1.09.02-2.19,0-3.28.01-.03-3.11.07-6.23-.05-9.34-1.71-1.78-3.49-3.49-5.22-5.25-1.74,1.78-3.51,3.53-5.28,5.28-.05,3.11.01,6.21-.03,9.32-1.7-.01-3.39,0-5.09,0,0-6.98-.01-13.96,0-20.94-1.61-2.16-3.27-4.27-4.89-6.43h0ZM39.94,51.97c-.02,3.54.02,7.09-.02,10.63-1.69.06-3.39.04-5.09,0,0-3.55,0-7.09,0-10.64,1.7-.02,3.41,0,5.11,0h0ZM24.27,51.98c0,3.54,0,7.08,0,10.62-1.7.08-3.39.02-5.09.03-.02-3.55,0-7.11,0-10.66,1.7,0,3.4,0,5.1,0h0Z"/>
</svg>
