<?xml version="1.0" encoding="UTF-8"?>
<svg id="Layer_1" data-name="Layer 1" xmlns="http://www.w3.org/2000/svg" viewBox="0 0 237.04 76.36">
  <defs>
    <style>
      .cls-1, .cls-2 {
        fill: #ffffff;
        fill-rule: evenodd;
      }
    </style>
  </defs>
  <path class="cls-1" d="M76.37,0C50.92.01,25.47.02.02,0-.02,11.81.01,23.63,0,35.44c9.85-8.34,19.68-16.72,29.53-25.06,8.9,7.55,17.8,15.11,26.7,22.66.92.84,1.98,1.54,2.8,2.48.07,13.61,0,27.22.03,40.83,5.77.02,11.54-.02,17.31,0,0-25.45.02-50.9,0-76.35h0Z"/>
  <path class="cls-2" d="M29.96,20.66c-.13-.16-.24-.34-.42-.45-1.68,2.15-3.31,4.34-4.98,6.5-.41.42-.25,1.03-.28,1.55-.02,6.59.03,13.18-.03,19.77-1.69,0-3.38,0-5.07,0-.03-3.01,0-6.01-.02-9.02.03-.26-.15-.46-.32-.62-1.66-1.65-3.31-3.3-4.95-4.95-1.75,1.76-3.51,3.52-5.28,5.27-.11,3.11.03,6.21-.05,9.32-1.09-.01-2.19,0-3.28-.01,0,1.32,0,2.64,0,3.95,1.09,0,2.18,0,3.28,0,0,3.54.05,7.09-.02,10.64-1.09.09-2.18,0-3.27.05.02,1.3.01,2.6,0,3.89,1.1.02,2.19.01,3.29,0,.02,3.27.03,6.53,0,9.8,3.54.02,7.07.02,10.61,0,0-3.27-.02-6.53,0-9.8,1.68,0,3.36,0,5.04,0,.12,3.27,0,6.54.04,9.81,3.52.02,7.04-.02,10.56,0,.02-3.27,0-6.54.01-9.81,1.7,0,3.4,0,5.1,0-.02,3.27,0,6.54,0,9.81,3.52,0,7.04,0,10.56,0,.03-3.27-.05-6.55.04-9.82,1.09.03,2.18.03,3.26,0,0-1.3,0-2.6,0-3.9-1.1,0-2.2.01-3.3-.02,0-3.55-.03-7.11.02-10.66,1.09.02,2.19,0,3.28.01,0-1.32.02-2.64-.02-3.95-1.09.02-2.19,0-3.28.01-.03-3.11.07-6.23-.05-9.34-1.71-1.78-3.49-3.49-5.22-5.25-1.74,1.78-3.51,3.53-5.28,5.28-.05,3.11.01,6.21-.03,9.32-1.7-.01-3.39,0-5.09,0,0-6.98-.01-13.96,0-20.94-1.61-2.16-3.27-4.27-4.89-6.43h0ZM39.94,51.97c-.02,3.54.02,7.09-.02,10.63-1.69.06-3.39.04-5.09,0,0-3.55,0-7.09,0-10.64,1.7-.02,3.41,0,5.11,0h0ZM24.27,51.98c0,3.54,0,7.08,0,10.62-1.7.08-3.39.02-5.09.03-.02-3.55,0-7.11,0-10.66,1.7,0,3.4,0,5.1,0h0Z"/>
  <path class="cls-2" d="M120.58,60.41h-7.63v-5.75h8.51v-3.98h-13.03v21.27h4.52v-7.57h7.63v-3.98h0ZM145.83,50.69h-13.03v21.27h13.28v-4.13h-8.69v-4.87h7.9v-3.98h-7.9v-4.32h8.45v-3.98h0ZM174.54,72.02h1.37v-21.33h-4.55v12.06l-11.94-12.15h-1.43v21.36h4.52v-12.16l12.04,12.22h0ZM187.46,61.35c.03,2.35.56,4.33,1.58,5.94,1.02,1.61,2.35,2.82,3.99,3.64,1.64.82,3.41,1.23,5.3,1.24,1.5,0,2.95-.27,4.33-.81s2.57-1.41,3.57-2.58c.99-1.17,1.65-2.69,1.98-4.56h-4.38c-.38,1.29-1.07,2.25-2.05,2.88-.98.63-2.14.95-3.48.95-1.27-.02-2.38-.32-3.31-.92s-1.66-1.4-2.17-2.41c-.51-1.01-.77-2.12-.78-3.36.03-2.05.6-3.69,1.73-4.91,1.13-1.22,2.65-1.84,4.56-1.87,1.28,0,2.39.27,3.31.83.92.56,1.62,1.44,2.1,2.63h4.41c-.35-1.75-1.02-3.18-2.02-4.3-1-1.12-2.19-1.94-3.56-2.47-1.37-.53-2.78-.8-4.23-.79-1.89-.03-3.66.38-5.3,1.21-1.64.83-2.97,2.06-3.99,3.68-1.02,1.63-1.55,3.62-1.58,5.99h0ZM232.61,50.69h-13.03v21.27h13.28v-4.13h-8.69v-4.87h7.9v-3.98h-7.9v-4.32h8.45v-3.98h0ZM236.43,46.8H104.85v29.04h131.58v-29.04h0Z"/>
  <polygon class="cls-1" points="85.81 6.68 92.49 6.68 92.49 41.53 98.88 41.53 98.88 6.68 105.55 6.68 105.55 .88 85.81 .88 85.81 6.68 85.81 6.68"/>
  <polygon class="cls-1" points="124.84 41.53 133.32 41.53 137.85 .88 132.27 .88 128.96 33.16 125.77 .88 119.61 .88 116.54 32.93 113.11 .88 106.9 .88 111.43 41.53 120.19 41.53 122.52 19.87 124.84 41.53 124.84 41.53"/>
  <path class="cls-1" d="M146.91,10.22c.01-1.44.31-2.47.89-3.09.59-.62,1.39-.93,2.42-.91,1.03-.01,1.84.29,2.42.91.59.62.88,1.66.89,3.09v21.96c-.01,1.44-.31,2.47-.89,3.09-.59.62-1.39.93-2.42.91-1.03.01-1.84-.29-2.42-.91-.59-.62-.88-1.66-.89-3.09V10.22h0ZM140.52,31.78c.01,3.27.84,5.79,2.5,7.55,1.65,1.76,4.05,2.65,7.2,2.67,3.15-.02,5.55-.91,7.2-2.67,1.65-1.76,2.48-4.28,2.5-7.55V10.63c-.01-3.27-.84-5.79-2.5-7.55-1.65-1.76-4.05-2.65-7.2-2.67-3.15.02-5.55.91-7.2,2.67-1.65,1.76-2.48,4.28-2.5,7.55v21.15h0Z"/>
  <polygon class="cls-1" points="172.87 .88 163.99 .88 163.99 41.53 169.56 41.53 169.56 12.78 174.32 41.53 180.36 41.53 184.78 12.38 184.78 41.53 190.81 41.53 190.81 .88 181.93 .88 177.58 29.74 172.87 .88 172.87 .88"/>
  <polygon class="cls-1" points="201.85 6.68 212.88 6.68 212.88 .88 195.47 .88 195.47 41.53 212.88 41.53 212.88 35.73 201.85 35.73 201.85 23.81 210.62 23.81 210.62 18.01 201.85 18.01 201.85 6.68 201.85 6.68"/>
  <polygon class="cls-1" points="230.49 41.53 237.04 41.53 237.04 .88 231.36 .88 231.36 25.21 224.79 .88 216.78 .88 216.78 41.53 222.52 41.53 222.52 12.09 230.49 41.53 230.49 41.53"/>

</svg>
